{"accessors":[{"bufferView":0,"componentType":5126,"count":420,"max":[28.500001907348633,18.0,35.5],"min":[-28.500001907348633,-1.0,-35.5],"normalized":false,"type":"VEC3"},{"bufferView":1,"componentType":5126,"count":420,"max":[0.0,4.5779161155223846e-05,1.0,-1.0],"min":[-1.0,-1.0,-1.0,-1.0],"normalized":false,"type":"VEC4"},{"bufferView":2,"componentType":5126,"count":420,"max":[1.0,1.0,1.0],"min":[-1.0,-1.0,-1.0],"normalized":false,"type":"VEC3"},{"bufferView":3,"componentType":5126,"count":420,"max":[1.0,1.0],"min":[0.0,0.0],"normalized":false,"type":"VEC2"},{"bufferView":4,"componentType":5123,"count":420,"max":[419],"min":[0],"normalized":false,"type":"SCALAR"},{"bufferView":5,"componentType":5126,"count":36,"max":[7.0,19.002498626708984,34.5],"min":[-7.0,1.0,33.5],"normalized":false,"type":"VEC3"},{"bufferView":6,"componentType":5126,"count":36,"max":[0.0,0.0,7.630093023180962e-05,-1.0],"min":[-1.0,-1.0,-1.0,-1.0],"normalized":false,"type":"VEC4"},{"bufferView":7,"componentType":5126,"count":36,"max":[1.0,1.0,1.0],"min":[-1.0,-1.5259254723787308e-05,-1.0],"normalized":false,"type":"VEC3"},{"bufferView":8,"componentType":5126,"count":36,"max":[1.0,1.0],"min":[0.0,0.0],"normalized":false,"type":"VEC2"},{"bufferView":9,"componentType":5121,"count":36,"max":[35],"min":[0],"normalized":false,"type":"SCALAR"},{"bufferView":10,"componentType":5126,"count":72,"max":[19.986902236938477,14.847652435302734,34.34600067138672],"min":[-19.98699951171875,5.847652435302734,33.34600067138672],"normalized":false,"type":"VEC3"},{"bufferView":11,"componentType":5126,"count":72,"max":[0.0,0.0,7.630093023180962e-05,-1.0],"min":[-1.0,-1.0,-1.0,-1.0],"normalized":false,"type":"VEC4"},{"bufferView":12,"componentType":5126,"count":72,"max":[1.0,1.0,1.0],"min":[-1.0,-1.0,-1.0],"normalized":false,"type":"VEC3"},{"bufferView":13,"componentType":5126,"count":72,"max":[1.0,1.0],"min":[0.0,0.0],"normalized":false,"type":"VEC2"},{"bufferView":14,"componentType":5121,"count":72,"max":[71],"min":[0],"normalized":false,"type":"SCALAR"},{"bufferView":15,"componentType":5126,"count":72,"max":[27.5,12.913000106811523,23.5],"min":[-27.500001907348633,1.0,-21.5],"normalized":false,"type":"VEC3"},{"bufferView":16,"componentType":5126,"count":72,"max":[-1.5259720385074615e-05,4.5779161155223846e-05,1.0,-1.0],"min":[-1.0,-1.0,-4.5778462663292885e-05,-1.0],"normalized":false,"type":"VEC4"},{"bufferView":17,"componentType":5126,"count":72,"max":[1.0,1.0,1.0],"min":[-1.0,-1.5259254723787308e-05,-1.0],"normalized":false,"type":"VEC3"},{"bufferView":18,"componentType":5126,"count":72,"max":[1.0,1.0],"min":[0.0,0.0],"normalized":false,"type":"VEC2"},{"bufferView":19,"componentType":5126,"count":18,"max":[27.499998092651367,18.0,-25.0],"min":[6.5,1.0,-34.5],"normalized":false,"type":"VEC3"},{"bufferView":20,"componentType":5126,"count":18,"max":[0.0,0.0,7.630093023180962e-05,-1.0],"min":[-1.0,-1.0,-1.0,-1.0],"normalized":false,"type":"VEC4"},{"bufferView":21,"componentType":5126,"count":18,"max":[0.0,1.0,1.0],"min":[-1.0,-1.5259254723787308e-05,-1.5259021893143654e-05],"normalized":false,"type":"VEC3"},{"bufferView":22,"componentType":5126,"count":18,"max":[1.0,1.0],"min":[0.0,0.0],"normalized":false,"type":"VEC2"},{"bufferView":23,"componentType":5121,"count":18,"max":[17],"min":[0],"normalized":false,"type":"SCALAR"},{"bufferView":24,"componentType":5126,"count":114,"max":[27.5,7.0,28.518970489501953],"min":[-27.500001907348633,1.0,-34.5],"normalized":false,"type":"VEC3"},{"bufferView":25,"componentType":5126,"count":114,"max":[0.0,0.0,7.630093023180962e-05,-1.0],"min":[-1.0,-1.0,-1.0,-1.0],"normalized":false,"type":"VEC4"},{"bufferView":26,"componentType":5126,"count":114,"max":[1.0,1.0,1.0],"min":[-1.0,-1.5259254723787308e-05,-1.0],"normalized":false,"type":"VEC3"},{"bufferView":27,"componentType":5126,"count":114,"max":[1.0,1.0],"min":[0.0,0.0],"normalized":false,"type":"VEC2"},{"bufferView":28,"componentType":5121,"count":114,"max":[113],"min":[0],"normalized":false,"type":"SCALAR"},{"bufferView":29,"componentType":5126,"count":30,"max":[-4.922506332397461,5.5,-0.4574775695800781],"min":[-12.922506332397461,1.2999999523162842,-8.323200225830078],"normalized":false,"type":"VEC3"},{"bufferView":30,"componentType":5126,"count":30,"max":[0.0,0.0,7.630093023180962e-05,-1.0],"min":[-1.0,-1.0,-1.0,-1.0],"normalized":false,"type":"VEC4"},{"bufferView":31,"componentType":5126,"count":30,"max":[1.0,1.0,1.0],"min":[-1.0,-1.5259254723787308e-05,-1.0],"normalized":false,"type":"VEC3"},{"bufferView":32,"componentType":5126,"count":30,"max":[1.0,1.0],"min":[0.0,0.0],"normalized":false,"type":"VEC2"},{"bufferView":33,"componentType":5121,"count":30,"max":[29],"min":[0],"normalized":false,"type":"SCALAR"}],"asset":{"generator":"Godot Engine v4.6.stable.official@89cea143987d564363e15d207438530651d943ac","version":"2.0"},"bufferViews":[{"buffer":0,"byteLength":5040,"byteStride":12,"target":34962},{"buffer":0,"byteLength":6720,"byteOffset":5040,"byteStride":16,"target":34962},{"buffer":0,"byteLength":5040,"byteOffset":11760,"byteStride":12,"target":34962},{"buffer":0,"byteLength":3360,"byteOffset":16800,"byteStride":8,"target":34962},{"buffer":0,"byteLength":840,"byteOffset":20160,"target":34963},{"buffer":0,"byteLength":432,"byteOffset":21000,"byteStride":12,"target":34962},{"buffer":0,"byteLength":576,"byteOffset":21432,"byteStride":16,"target":34962},{"buffer":0,"byteLength":432,"byteOffset":22008,"byteStride":12,"target":34962},{"buffer":0,"byteLength":288,"byteOffset":22440,"byteStride":8,"target":34962},{"buffer":0,"byteLength":36,"byteOffset":22728,"target":34963},{"buffer":0,"byteLength":864,"byteOffset":22764,"byteStride":12,"target":34962},{"buffer":0,"byteLength":1152,"byteOffset":23628,"byteStride":16,"target":34962},{"buffer":0,"byteLength":864,"byteOffset":24780,"byteStride":12,"target":34962},{"buffer":0,"byteLength":576,"byteOffset":25644,"byteStride":8,"target":34962},{"buffer":0,"byteLength":72,"byteOffset":26220,"target":34963},{"buffer":0,"byteLength":864,"byteOffset":26292,"byteStride":12,"target":34962},{"buffer":0,"byteLength":1152,"byteOffset":27156,"byteStride":16,"target":34962},{"buffer":0,"byteLength":864,"byteOffset":28308,"byteStride":12,"target":34962},{"buffer":0,"byteLength":576,"byteOffset":29172,"byteStride":8,"target":34962},{"buffer":0,"byteLength":216,"byteOffset":29748,"byteStride":12,"target":34962},{"buffer":0,"byteLength":288,"byteOffset":29964,"byteStride":16,"target":34962},{"buffer":0,"byteLength":216,"byteOffset":30252,"byteStride":12,"target":34962},{"buffer":0,"byteLength":144,"byteOffset":30468,"byteStride":8,"target":34962},{"buffer":0,"byteLength":18,"byteOffset":30612,"target":34963},{"buffer":0,"byteLength":1368,"byteOffset":30632,"byteStride":12,"target":34962},{"buffer":0,"byteLength":1824,"byteOffset":32000,"byteStride":16,"target":34962},{"buffer":0,"byteLength":1368,"byteOffset":33824,"byteStride":12,"target":34962},{"buffer":0,"byteLength":912,"byteOffset":35192,"byteStride":8,"target":34962},{"buffer":0,"byteLength":114,"byteOffset":36104,"target":34963},{"buffer":0,"byteLength":360,"byteOffset":36220,"byteStride":12,"target":34962},{"buffer":0,"byteLength":480,"byteOffset":36580,"byteStride":16,"target":34962},{"buffer":0,"byteLength":360,"byteOffset":37060,"byteStride":12,"target":34962},{"buffer":0,"byteLength":240,"byteOffset":37420,"byteStride":8,"target":34962},{"buffer":0,"byteLength":30,"byteOffset":37660,"target":34963}],"buffers":[{"byteLength":37690,"uri":"Official_Scene_8_SecondFloor0.bin"}],"extensionsUsed":["GODOT_single_root"],"materials":[{},{"pbrMetallicRoughness":{"baseColorFactor":[0.7312549352645874,0.0,0.002325981855392456,1.0],"metallicFactor":0.0,"roughnessFactor":1.0}},{"pbrMetallicRoughness":{"baseColorFactor":[0.0,0.7293470501899719,0.006272170692682266,1.0],"metallicFactor":0.0,"roughnessFactor":1.0}},{"pbrMetallicRoughness":{"baseColorFactor":[0.7312549352645874,0.0,0.002325981855392456,1.0],"metallicFactor":0.0,"roughnessFactor":1.0}},{"pbrMetallicRoughness":{"baseColorFactor":[0.4553840756416321,0.2491673082113266,0.0026488155126571655,1.0],"metallicFactor":0.0,"roughnessFactor":1.0}},{"pbrMetallicRoughness":{"baseColorFactor":[0.10287979245185852,1.0,0.08353511989116669,1.0],"metallicFactor":0.0,"roughnessFactor":1.0}},{"pbrMetallicRoughness":{"baseColorFactor":[0.0672016367316246,0.05087607726454735,1.0,1.0],"metallicFactor":0.0,"roughnessFactor":1.0}}],"meshes":[{"name":"Ground2","primitives":[{"attributes":{"NORMAL":2,"POSITION":0,"TANGENT":1,"TEXCOORD_0":3},"indices":4,"material":0,"mode":4},{"attributes":{"NORMAL":7,"POSITION":5,"TANGENT":6,"TEXCOORD_0":8},"indices":9,"material":1,"mode":4},{"attributes":{"NORMAL":12,"POSITION":10,"TANGENT":11,"TEXCOORD_0":13},"indices":14,"material":2,"mode":4},{"attributes":{"NORMAL":17,"POSITION":15,"TANGENT":16,"TEXCOORD_0":18},"indices":14,"material":3,"mode":4},{"attributes":{"NORMAL":21,"POSITION":19,"TANGENT":20,"TEXCOORD_0":22},"indices":23,"material":4,"mode":4},{"attributes":{"NORMAL":26,"POSITION":24,"TANGENT":25,"TEXCOORD_0":27},"indices":28,"material":5,"mode":4},{"attributes":{"NORMAL":31,"POSITION":29,"TANGENT":30,"TEXCOORD_0":32},"indices":33,"material":6,"mode":4}]}],"nodes":[{"mesh":0,"name":"Ground2"}],"scene":0,"scenes":[{"nodes":[0]}]}