{"accessors":[{"bufferView":0,"componentType":5126,"count":450,"max":[28.500001907348633,18.0,35.5],"min":[-28.500001907348633,-1.0,-35.5],"normalized":false,"type":"VEC3"},{"bufferView":1,"componentType":5126,"count":450,"max":[0.0,4.5779161155223846e-05,1.0,-1.0],"min":[-1.0,-1.0,-1.0,-1.0],"normalized":false,"type":"VEC4"},{"bufferView":2,"componentType":5126,"count":450,"max":[1.0,1.0,1.0],"min":[-1.0,-1.0,-1.0],"normalized":false,"type":"VEC3"},{"bufferView":3,"componentType":5126,"count":450,"max":[1.0,1.0],"min":[0.0,0.0],"normalized":false,"type":"VEC2"},{"bufferView":4,"componentType":5123,"count":450,"max":[449],"min":[0],"normalized":false,"type":"SCALAR"},{"bufferView":5,"componentType":5126,"count":36,"max":[7.0,19.002498626708984,34.5],"min":[-7.0,1.0,33.5],"normalized":false,"type":"VEC3"},{"bufferView":6,"componentType":5126,"count":36,"max":[0.0,0.0,7.630093023180962e-05,-1.0],"min":[-1.0,-1.0,-1.0,-1.0],"normalized":false,"type":"VEC4"},{"bufferView":7,"componentType":5126,"count":36,"max":[1.0,1.0,1.0],"min":[-1.0,-1.5259254723787308e-05,-1.0],"normalized":false,"type":"VEC3"},{"bufferView":8,"componentType":5126,"count":36,"max":[1.0,1.0],"min":[0.0,0.0],"normalized":false,"type":"VEC2"},{"bufferView":9,"componentType":5121,"count":36,"max":[35],"min":[0],"normalized":false,"type":"SCALAR"},{"bufferView":10,"componentType":5126,"count":72,"max":[19.986902236938477,14.847652435302734,34.34600067138672],"min":[-19.98699951171875,5.847652435302734,33.34600067138672],"normalized":false,"type":"VEC3"},{"bufferView":11,"componentType":5126,"count":72,"max":[0.0,0.0,7.630093023180962e-05,-1.0],"min":[-1.0,-1.0,-1.0,-1.0],"normalized":false,"type":"VEC4"},{"bufferView":12,"componentType":5126,"count":72,"max":[1.0,1.0,1.0],"min":[-1.0,-1.0,-1.0],"normalized":false,"type":"VEC3"},{"bufferView":13,"componentType":5126,"count":72,"max":[1.0,1.0],"min":[0.0,0.0],"normalized":false,"type":"VEC2"},{"bufferView":14,"componentType":5121,"count":72,"max":[71],"min":[0],"normalized":false,"type":"SCALAR"},{"bufferView":15,"componentType":5126,"count":96,"max":[27.500001907348633,12.913000106811523,23.5],"min":[-27.500001907348633,1.0,-21.5],"normalized":false,"type":"VEC3"},{"bufferView":16,"componentType":5126,"count":96,"max":[-1.5259720385074615e-05,4.5779161155223846e-05,1.0,-1.0],"min":[-1.0,-1.0,-4.5778462663292885e-05,-1.0],"normalized":false,"type":"VEC4"},{"bufferView":17,"componentType":5126,"count":96,"max":[1.0,1.0,1.0],"min":[-1.0,-1.5259254723787308e-05,-1.0],"normalized":false,"type":"VEC3"},{"bufferView":18,"componentType":5126,"count":96,"max":[1.0,1.0],"min":[0.0,0.0],"normalized":false,"type":"VEC2"},{"bufferView":19,"componentType":5121,"count":96,"max":[95],"min":[0],"normalized":false,"type":"SCALAR"},{"bufferView":20,"componentType":5126,"count":18,"max":[27.499998092651367,18.0,-25.0],"min":[6.5,1.0,-34.5],"normalized":false,"type":"VEC3"},{"bufferView":21,"componentType":5126,"count":18,"max":[0.0,0.0,7.630093023180962e-05,-1.0],"min":[-1.0,-1.0,-1.0,-1.0],"normalized":false,"type":"VEC4"},{"bufferView":22,"componentType":5126,"count":18,"max":[0.0,1.0,1.0],"min":[-1.0,-1.5259254723787308e-05,-1.5259021893143654e-05],"normalized":false,"type":"VEC3"},{"bufferView":23,"componentType":5126,"count":18,"max":[1.0,1.0],"min":[0.0,0.0],"normalized":false,"type":"VEC2"},{"bufferView":24,"componentType":5121,"count":18,"max":[17],"min":[0],"normalized":false,"type":"SCALAR"},{"bufferView":25,"componentType":5126,"count":132,"max":[27.5,7.0,28.518970489501953],"min":[-27.5,1.0,-11.48102855682373],"normalized":false,"type":"VEC3"},{"bufferView":26,"componentType":5126,"count":132,"max":[0.0,0.0,7.630093023180962e-05,-1.0],"min":[-1.0,-1.0,-1.0,-1.0],"normalized":false,"type":"VEC4"},{"bufferView":27,"componentType":5126,"count":132,"max":[1.0,1.0,1.0],"min":[-1.0,-1.5259254723787308e-05,-1.0],"normalized":false,"type":"VEC3"},{"bufferView":28,"componentType":5126,"count":132,"max":[1.0,1.0],"min":[0.0,0.0],"normalized":false,"type":"VEC2"},{"bufferView":29,"componentType":5121,"count":132,"max":[131],"min":[0],"normalized":false,"type":"SCALAR"},{"bufferView":30,"componentType":5126,"count":24,"max":[-7.779245376586914,5.5,-26.766399383544922],"min":[-15.779245376586914,1.0,-34.5],"normalized":false,"type":"VEC3"},{"bufferView":31,"componentType":5126,"count":24,"max":[0.0,0.0,7.630093023180962e-05,-1.0],"min":[-1.0,-1.0,-1.0,-1.0],"normalized":false,"type":"VEC4"},{"bufferView":32,"componentType":5126,"count":24,"max":[1.0,1.0,1.0],"min":[-1.0,-1.5259254723787308e-05,-1.5259021893143654e-05],"normalized":false,"type":"VEC3"},{"bufferView":33,"componentType":5126,"count":24,"max":[1.0,1.0],"min":[0.0,0.0],"normalized":false,"type":"VEC2"},{"bufferView":34,"componentType":5121,"count":24,"max":[23],"min":[0],"normalized":false,"type":"SCALAR"},{"bufferView":35,"componentType":5126,"count":126,"max":[12.5,5.78271484375,17.876998901367188],"min":[-12.5,1.2999999523162842,2.5078539848327637],"normalized":false,"type":"VEC3"},{"bufferView":36,"componentType":5126,"count":126,"max":[1.0,0.0,7.630093023180962e-05,-1.0],"min":[-1.5260186046361923e-05,-1.0,-1.0,-1.0],"normalized":false,"type":"VEC4"},{"bufferView":37,"componentType":5126,"count":126,"max":[1.0,1.0,1.0],"min":[-1.0,-1.0,-1.0],"normalized":false,"type":"VEC3"},{"bufferView":38,"componentType":5126,"count":126,"max":[1.0,1.0],"min":[0.0,0.0],"normalized":false,"type":"VEC2"},{"bufferView":39,"componentType":5121,"count":126,"max":[125],"min":[0],"normalized":false,"type":"SCALAR"}],"asset":{"generator":"Godot Engine v4.6.stable.official@89cea143987d564363e15d207438530651d943ac","version":"2.0"},"bufferViews":[{"buffer":0,"byteLength":5400,"byteStride":12,"target":34962},{"buffer":0,"byteLength":7200,"byteOffset":5400,"byteStride":16,"target":34962},{"buffer":0,"byteLength":5400,"byteOffset":12600,"byteStride":12,"target":34962},{"buffer":0,"byteLength":3600,"byteOffset":18000,"byteStride":8,"target":34962},{"buffer":0,"byteLength":900,"byteOffset":21600,"target":34963},{"buffer":0,"byteLength":432,"byteOffset":22500,"byteStride":12,"target":34962},{"buffer":0,"byteLength":576,"byteOffset":22932,"byteStride":16,"target":34962},{"buffer":0,"byteLength":432,"byteOffset":23508,"byteStride":12,"target":34962},{"buffer":0,"byteLength":288,"byteOffset":23940,"byteStride":8,"target":34962},{"buffer":0,"byteLength":36,"byteOffset":24228,"target":34963},{"buffer":0,"byteLength":864,"byteOffset":24264,"byteStride":12,"target":34962},{"buffer":0,"byteLength":1152,"byteOffset":25128,"byteStride":16,"target":34962},{"buffer":0,"byteLength":864,"byteOffset":26280,"byteStride":12,"target":34962},{"buffer":0,"byteLength":576,"byteOffset":27144,"byteStride":8,"target":34962},{"buffer":0,"byteLength":72,"byteOffset":27720,"target":34963},{"buffer":0,"byteLength":1152,"byteOffset":27792,"byteStride":12,"target":34962},{"buffer":0,"byteLength":1536,"byteOffset":28944,"byteStride":16,"target":34962},{"buffer":0,"byteLength":1152,"byteOffset":30480,"byteStride":12,"target":34962},{"buffer":0,"byteLength":768,"byteOffset":31632,"byteStride":8,"target":34962},{"buffer":0,"byteLength":96,"byteOffset":32400,"target":34963},{"buffer":0,"byteLength":216,"byteOffset":32496,"byteStride":12,"target":34962},{"buffer":0,"byteLength":288,"byteOffset":32712,"byteStride":16,"target":34962},{"buffer":0,"byteLength":216,"byteOffset":33000,"byteStride":12,"target":34962},{"buffer":0,"byteLength":144,"byteOffset":33216,"byteStride":8,"target":34962},{"buffer":0,"byteLength":18,"byteOffset":33360,"target":34963},{"buffer":0,"byteLength":1584,"byteOffset":33380,"byteStride":12,"target":34962},{"buffer":0,"byteLength":2112,"byteOffset":34964,"byteStride":16,"target":34962},{"buffer":0,"byteLength":1584,"byteOffset":37076,"byteStride":12,"target":34962},{"buffer":0,"byteLength":1056,"byteOffset":38660,"byteStride":8,"target":34962},{"buffer":0,"byteLength":132,"byteOffset":39716,"target":34963},{"buffer":0,"byteLength":288,"byteOffset":39848,"byteStride":12,"target":34962},{"buffer":0,"byteLength":384,"byteOffset":40136,"byteStride":16,"target":34962},{"buffer":0,"byteLength":288,"byteOffset":40520,"byteStride":12,"target":34962},{"buffer":0,"byteLength":192,"byteOffset":40808,"byteStride":8,"target":34962},{"buffer":0,"byteLength":24,"byteOffset":41000,"target":34963},{"buffer":0,"byteLength":1512,"byteOffset":41024,"byteStride":12,"target":34962},{"buffer":0,"byteLength":2016,"byteOffset":42536,"byteStride":16,"target":34962},{"buffer":0,"byteLength":1512,"byteOffset":44552,"byteStride":12,"target":34962},{"buffer":0,"byteLength":1008,"byteOffset":46064,"byteStride":8,"target":34962},{"buffer":0,"byteLength":126,"byteOffset":47072,"target":34963}],"buffers":[{"byteLength":47198,"uri":"Official_Scene_2_LivingRoom0.bin"}],"extensionsUsed":["GODOT_single_root"],"materials":[{},{"pbrMetallicRoughness":{"baseColorFactor":[0.7312549352645874,0.0,0.002325981855392456,1.0],"metallicFactor":0.0,"roughnessFactor":1.0}},{"pbrMetallicRoughness":{"baseColorFactor":[0.0,0.7293470501899719,0.006272170692682266,1.0],"metallicFactor":0.0,"roughnessFactor":1.0}},{"pbrMetallicRoughness":{"baseColorFactor":[0.7312549352645874,0.0,0.002325981855392456,1.0],"metallicFactor":0.0,"roughnessFactor":1.0}},{"pbrMetallicRoughness":{"baseColorFactor":[0.4553840756416321,0.2491673082113266,0.0026488155126571655,1.0],"metallicFactor":0.0,"roughnessFactor":1.0}},{"pbrMetallicRoughness":{"baseColorFactor":[0.10287979245185852,1.0,0.08353511989116669,1.0],"metallicFactor":0.0,"roughnessFactor":1.0}},{"pbrMetallicRoughness":{"baseColorFactor":[0.0672016367316246,0.05087607726454735,1.0,1.0],"metallicFactor":0.0,"roughnessFactor":1.0}},{"pbrMetallicRoughness":{"baseColorFactor":[0.07958148419857025,0.05087607726454735,1.0,1.0],"metallicFactor":0.0,"roughnessFactor":1.0}}],"meshes":[{"name":"Ground2","primitives":[{"attributes":{"NORMAL":2,"POSITION":0,"TANGENT":1,"TEXCOORD_0":3},"indices":4,"material":0,"mode":4},{"attributes":{"NORMAL":7,"POSITION":5,"TANGENT":6,"TEXCOORD_0":8},"indices":9,"material":1,"mode":4},{"attributes":{"NORMAL":12,"POSITION":10,"TANGENT":11,"TEXCOORD_0":13},"indices":14,"material":2,"mode":4},{"attributes":{"NORMAL":17,"POSITION":15,"TANGENT":16,"TEXCOORD_0":18},"indices":19,"material":3,"mode":4},{"attributes":{"NORMAL":22,"POSITION":20,"TANGENT":21,"TEXCOORD_0":23},"indices":24,"material":4,"mode":4},{"attributes":{"NORMAL":27,"POSITION":25,"TANGENT":26,"TEXCOORD_0":28},"indices":29,"material":5,"mode":4},{"attributes":{"NORMAL":32,"POSITION":30,"TANGENT":31,"TEXCOORD_0":33},"indices":34,"material":6,"mode":4},{"attributes":{"NORMAL":37,"POSITION":35,"TANGENT":36,"TEXCOORD_0":38},"indices":39,"material":7,"mode":4}]}],"nodes":[{"mesh":0,"name":"Ground2"}],"scene":0,"scenes":[{"nodes":[0]}]}