{"accessors":[{"bufferView":0,"componentType":5126,"count":990,"max":[70.0,39.62751388549805,60.73991394042969],"min":[-70.0,-1.0,-50.0],"normalized":false,"type":"VEC3"},{"bufferView":1,"componentType":5126,"count":990,"max":[9.171634155791253e-05,1.0,1.0,-1.0],"min":[-1.0,-1.0,-1.0,-1.0],"normalized":false,"type":"VEC4"},{"bufferView":2,"componentType":5126,"count":990,"max":[1.0,1.0,1.0],"min":[-1.0,-1.0,-1.0],"normalized":false,"type":"VEC3"},{"bufferView":3,"componentType":5126,"count":990,"max":[1.0,1.0],"min":[0.0,0.0],"normalized":false,"type":"VEC2"},{"bufferView":4,"componentType":5123,"count":990,"max":[989],"min":[0],"normalized":false,"type":"SCALAR"},{"bufferView":5,"componentType":5126,"count":84,"max":[3.0,1.2274227142333984,36.5],"min":[-3.0,1.0,-50.0],"normalized":false,"type":"VEC3"},{"bufferView":6,"componentType":5126,"count":84,"max":[0.0,0.0,7.630093023180962e-05,-1.0],"min":[-1.0,-1.0,-1.0,-1.0],"normalized":false,"type":"VEC4"},{"bufferView":7,"componentType":5126,"count":84,"max":[1.0,1.0,-1.5259021893143654e-05],"min":[-1.0,0.0,-1.0],"normalized":false,"type":"VEC3"},{"bufferView":8,"componentType":5126,"count":84,"max":[1.0,1.0],"min":[0.0,0.0],"normalized":false,"type":"VEC2"},{"bufferView":9,"componentType":5121,"count":84,"max":[83],"min":[0],"normalized":false,"type":"SCALAR"},{"bufferView":10,"componentType":5126,"count":108,"max":[15.0,1.8932498693466187,51.5],"min":[-15.0,-0.10675084590911865,36.5],"normalized":false,"type":"VEC3"},{"bufferView":11,"componentType":5126,"count":108,"max":[0.0,1.0,-1.5259021893143654e-05,-1.0],"min":[-1.0,0.0,-1.0,-1.0],"normalized":false,"type":"VEC4"},{"bufferView":12,"componentType":5126,"count":108,"max":[1.0,1.0,1.0],"min":[-1.0,-1.0,-1.0],"normalized":false,"type":"VEC3"},{"bufferView":13,"componentType":5126,"count":108,"max":[1.0,1.0],"min":[0.0,0.0],"normalized":false,"type":"VEC2"},{"bufferView":14,"componentType":5121,"count":108,"max":[107],"min":[0],"normalized":false,"type":"SCALAR"},{"bufferView":15,"componentType":5126,"count":414,"max":[35.72187042236328,35.55105209350586,58.79845428466797],"min":[-35.72200012207031,-0.44899940490722656,44.79800033569336],"normalized":false,"type":"VEC3"},{"bufferView":16,"componentType":5126,"count":414,"max":[1.0,6.474052497651428e-05,1.0,1.0],"min":[-0.990612268447876,-3.9874710637377575e-05,-1.0,-1.0],"normalized":false,"type":"VEC4"},{"bufferView":17,"componentType":5126,"count":414,"max":[1.0,1.0,0.9906066060066223],"min":[-1.0,-1.0,-1.0],"normalized":false,"type":"VEC3"},{"bufferView":18,"componentType":5126,"count":414,"max":[1.0,1.0],"min":[0.0,0.0],"normalized":false,"type":"VEC2"},{"bufferView":19,"componentType":5123,"count":414,"max":[413],"min":[0],"normalized":false,"type":"SCALAR"},{"bufferView":20,"componentType":5126,"count":498,"max":[60.0,33.226505279541016,49.637001037597656],"min":[-60.0,1.893249273300171,48.637001037597656],"normalized":false,"type":"VEC3"},{"bufferView":21,"componentType":5126,"count":498,"max":[0.0,0.0,7.630093023180962e-05,-1.0],"min":[-1.0,-1.0,-1.0,-1.0],"normalized":false,"type":"VEC4"},{"bufferView":22,"componentType":5126,"count":498,"max":[1.0,1.0,1.0],"min":[-1.0,-1.0,-1.0],"normalized":false,"type":"VEC3"},{"bufferView":23,"componentType":5126,"count":498,"max":[1.0,1.0],"min":[0.0,0.0],"normalized":false,"type":"VEC2"},{"bufferView":24,"componentType":5123,"count":498,"max":[497],"min":[0],"normalized":false,"type":"SCALAR"}],"asset":{"generator":"Godot Engine v4.6.stable.official@89cea143987d564363e15d207438530651d943ac","version":"2.0"},"bufferViews":[{"buffer":0,"byteLength":11880,"byteStride":12,"target":34962},{"buffer":0,"byteLength":15840,"byteOffset":11880,"byteStride":16,"target":34962},{"buffer":0,"byteLength":11880,"byteOffset":27720,"byteStride":12,"target":34962},{"buffer":0,"byteLength":7920,"byteOffset":39600,"byteStride":8,"target":34962},{"buffer":0,"byteLength":1980,"byteOffset":47520,"target":34963},{"buffer":0,"byteLength":1008,"byteOffset":49500,"byteStride":12,"target":34962},{"buffer":0,"byteLength":1344,"byteOffset":50508,"byteStride":16,"target":34962},{"buffer":0,"byteLength":1008,"byteOffset":51852,"byteStride":12,"target":34962},{"buffer":0,"byteLength":672,"byteOffset":52860,"byteStride":8,"target":34962},{"buffer":0,"byteLength":84,"byteOffset":53532,"target":34963},{"buffer":0,"byteLength":1296,"byteOffset":53616,"byteStride":12,"target":34962},{"buffer":0,"byteLength":1728,"byteOffset":54912,"byteStride":16,"target":34962},{"buffer":0,"byteLength":1296,"byteOffset":56640,"byteStride":12,"target":34962},{"buffer":0,"byteLength":864,"byteOffset":57936,"byteStride":8,"target":34962},{"buffer":0,"byteLength":108,"byteOffset":58800,"target":34963},{"buffer":0,"byteLength":4968,"byteOffset":58908,"byteStride":12,"target":34962},{"buffer":0,"byteLength":6624,"byteOffset":63876,"byteStride":16,"target":34962},{"buffer":0,"byteLength":4968,"byteOffset":70500,"byteStride":12,"target":34962},{"buffer":0,"byteLength":3312,"byteOffset":75468,"byteStride":8,"target":34962},{"buffer":0,"byteLength":828,"byteOffset":78780,"target":34963},{"buffer":0,"byteLength":5976,"byteOffset":79608,"byteStride":12,"target":34962},{"buffer":0,"byteLength":7968,"byteOffset":85584,"byteStride":16,"target":34962},{"buffer":0,"byteLength":5976,"byteOffset":93552,"byteStride":12,"target":34962},{"buffer":0,"byteLength":3984,"byteOffset":99528,"byteStride":8,"target":34962},{"buffer":0,"byteLength":996,"byteOffset":103512,"target":34963}],"buffers":[{"byteLength":104508,"uri":"Official_Scene_1_FrontDoor0.bin"}],"extensionsUsed":["GODOT_single_root"],"materials":[{},{"pbrMetallicRoughness":{"baseColorFactor":[0.0300741009414196,1.0,0.07906264066696167,1.0],"metallicFactor":0.0,"roughnessFactor":1.0}},{"pbrMetallicRoughness":{"baseColorFactor":[0.03685694932937622,0.017389096319675446,1.0,1.0],"metallicFactor":0.0,"roughnessFactor":1.0}},{"pbrMetallicRoughness":{"baseColorFactor":[0.07004602253437042,0.09785670042037964,0.85374915599823,1.0],"metallicFactor":0.0,"roughnessFactor":1.0}},{"pbrMetallicRoughness":{"baseColorFactor":[0.7312549352645874,0.0,0.002325981855392456,1.0],"metallicFactor":0.0,"roughnessFactor":1.0}}],"meshes":[{"name":"Ground2","primitives":[{"attributes":{"NORMAL":2,"POSITION":0,"TANGENT":1,"TEXCOORD_0":3},"indices":4,"material":0,"mode":4},{"attributes":{"NORMAL":7,"POSITION":5,"TANGENT":6,"TEXCOORD_0":8},"indices":9,"material":1,"mode":4},{"attributes":{"NORMAL":12,"POSITION":10,"TANGENT":11,"TEXCOORD_0":13},"indices":14,"material":2,"mode":4},{"attributes":{"NORMAL":17,"POSITION":15,"TANGENT":16,"TEXCOORD_0":18},"indices":19,"material":3,"mode":4},{"attributes":{"NORMAL":22,"POSITION":20,"TANGENT":21,"TEXCOORD_0":23},"indices":24,"material":4,"mode":4}]}],"nodes":[{"mesh":0,"name":"Ground2"}],"scene":0,"scenes":[{"nodes":[0]}]}