{"accessors":[{"bufferView":0,"componentType":5126,"count":498,"max":[21.500001907348633,18.0,35.5],"min":[-21.500001907348633,-1.0,-35.5],"normalized":false,"type":"VEC3"},{"bufferView":1,"componentType":5126,"count":498,"max":[0.0,4.5779161155223846e-05,1.0,-1.0],"min":[-1.0,-1.0,-1.0,-1.0],"normalized":false,"type":"VEC4"},{"bufferView":2,"componentType":5126,"count":498,"max":[1.0,1.0,1.0],"min":[-1.0,-1.0,-1.0],"normalized":false,"type":"VEC3"},{"bufferView":3,"componentType":5126,"count":498,"max":[1.0,1.0],"min":[0.0,0.0],"normalized":false,"type":"VEC2"},{"bufferView":4,"componentType":5123,"count":498,"max":[497],"min":[0],"normalized":false,"type":"SCALAR"},{"bufferView":5,"componentType":5126,"count":78,"max":[20.500001907348633,12.913000106811523,23.5],"min":[-14.359267234802246,1.0,-34.116241455078125],"normalized":false,"type":"VEC3"},{"bufferView":6,"componentType":5126,"count":78,"max":[0.0,4.5779161155223846e-05,1.0,-1.0],"min":[-1.0,-1.0,-1.0,-1.0],"normalized":false,"type":"VEC4"},{"bufferView":7,"componentType":5126,"count":78,"max":[1.0,1.0,1.0],"min":[-1.0,-1.5259254723787308e-05,-1.0],"normalized":false,"type":"VEC3"},{"bufferView":8,"componentType":5126,"count":78,"max":[1.0,1.0],"min":[0.0,0.0],"normalized":false,"type":"VEC2"},{"bufferView":9,"componentType":5121,"count":78,"max":[77],"min":[0],"normalized":false,"type":"SCALAR"},{"bufferView":10,"componentType":5126,"count":60,"max":[12.56329345703125,14.847652435302734,34.5],"min":[-14.971866607666016,5.847652435302734,33.86626052856445],"normalized":false,"type":"VEC3"},{"bufferView":11,"componentType":5126,"count":60,"max":[0.0,0.0,7.630093023180962e-05,-1.0],"min":[-1.0,-1.0,-1.0,-1.0],"normalized":false,"type":"VEC4"},{"bufferView":12,"componentType":5126,"count":60,"max":[1.0,1.0,-1.5259021893143654e-05],"min":[-1.0,-1.0,-1.0],"normalized":false,"type":"VEC3"},{"bufferView":13,"componentType":5126,"count":60,"max":[1.0,1.0],"min":[0.0,0.0],"normalized":false,"type":"VEC2"},{"bufferView":14,"componentType":5121,"count":60,"max":[59],"min":[0],"normalized":false,"type":"SCALAR"},{"bufferView":15,"componentType":5126,"count":222,"max":[8.485389709472656,18.0,28.0],"min":[-21.958999633789063,0.0,-18.0],"normalized":false,"type":"VEC3"},{"bufferView":16,"componentType":5126,"count":222,"max":[0.0,0.0,7.630093023180962e-05,-1.0],"min":[-1.0,-1.0,-1.0,-1.0],"normalized":false,"type":"VEC4"},{"bufferView":17,"componentType":5126,"count":222,"max":[1.0,1.0,1.0],"min":[-1.0,-1.0,-1.0],"normalized":false,"type":"VEC3"},{"bufferView":18,"componentType":5126,"count":222,"max":[1.0,1.0],"min":[0.0,0.0],"normalized":false,"type":"VEC2"},{"bufferView":19,"componentType":5121,"count":222,"max":[221],"min":[0],"normalized":false,"type":"SCALAR"},{"bufferView":20,"componentType":5126,"count":24,"max":[20.5,7.0,8.100893020629883],"min":[15.752180099487305,1.0,0.10089302062988281],"normalized":false,"type":"VEC3"},{"bufferView":21,"componentType":5126,"count":24,"max":[0.0,0.0,7.630093023180962e-05,-1.0],"min":[-1.0,-1.0,-1.0,-1.0],"normalized":false,"type":"VEC4"},{"bufferView":22,"componentType":5126,"count":24,"max":[0.0,1.0,1.0],"min":[-1.0,-1.5259254723787308e-05,-1.0],"normalized":false,"type":"VEC3"},{"bufferView":23,"componentType":5126,"count":24,"max":[1.0,1.0],"min":[0.0,0.0],"normalized":false,"type":"VEC2"},{"bufferView":24,"componentType":5121,"count":24,"max":[23],"min":[0],"normalized":false,"type":"SCALAR"}],"asset":{"generator":"Godot Engine v4.6.stable.official@89cea143987d564363e15d207438530651d943ac","version":"2.0"},"bufferViews":[{"buffer":0,"byteLength":5976,"byteStride":12,"target":34962},{"buffer":0,"byteLength":7968,"byteOffset":5976,"byteStride":16,"target":34962},{"buffer":0,"byteLength":5976,"byteOffset":13944,"byteStride":12,"target":34962},{"buffer":0,"byteLength":3984,"byteOffset":19920,"byteStride":8,"target":34962},{"buffer":0,"byteLength":996,"byteOffset":23904,"target":34963},{"buffer":0,"byteLength":936,"byteOffset":24900,"byteStride":12,"target":34962},{"buffer":0,"byteLength":1248,"byteOffset":25836,"byteStride":16,"target":34962},{"buffer":0,"byteLength":936,"byteOffset":27084,"byteStride":12,"target":34962},{"buffer":0,"byteLength":624,"byteOffset":28020,"byteStride":8,"target":34962},{"buffer":0,"byteLength":78,"byteOffset":28644,"target":34963},{"buffer":0,"byteLength":720,"byteOffset":28724,"byteStride":12,"target":34962},{"buffer":0,"byteLength":960,"byteOffset":29444,"byteStride":16,"target":34962},{"buffer":0,"byteLength":720,"byteOffset":30404,"byteStride":12,"target":34962},{"buffer":0,"byteLength":480,"byteOffset":31124,"byteStride":8,"target":34962},{"buffer":0,"byteLength":60,"byteOffset":31604,"target":34963},{"buffer":0,"byteLength":2664,"byteOffset":31664,"byteStride":12,"target":34962},{"buffer":0,"byteLength":3552,"byteOffset":34328,"byteStride":16,"target":34962},{"buffer":0,"byteLength":2664,"byteOffset":37880,"byteStride":12,"target":34962},{"buffer":0,"byteLength":1776,"byteOffset":40544,"byteStride":8,"target":34962},{"buffer":0,"byteLength":222,"byteOffset":42320,"target":34963},{"buffer":0,"byteLength":288,"byteOffset":42544,"byteStride":12,"target":34962},{"buffer":0,"byteLength":384,"byteOffset":42832,"byteStride":16,"target":34962},{"buffer":0,"byteLength":288,"byteOffset":43216,"byteStride":12,"target":34962},{"buffer":0,"byteLength":192,"byteOffset":43504,"byteStride":8,"target":34962},{"buffer":0,"byteLength":24,"byteOffset":43696,"target":34963}],"buffers":[{"byteLength":43720,"uri":"Official_Scene_3_Study0.bin"}],"extensionsUsed":["GODOT_single_root"],"materials":[{},{"pbrMetallicRoughness":{"baseColorFactor":[0.7312549352645874,0.0,0.002325981855392456,1.0],"metallicFactor":0.0,"roughnessFactor":1.0}},{"pbrMetallicRoughness":{"baseColorFactor":[0.0,0.7293470501899719,0.006272170692682266,1.0],"metallicFactor":0.0,"roughnessFactor":1.0}},{"pbrMetallicRoughness":{"baseColorFactor":[0.039420679211616516,0.5940664410591125,1.1920928955078125e-07,1.0],"metallicFactor":0.0,"roughnessFactor":1.0}},{"pbrMetallicRoughness":{"baseColorFactor":[0.10287979245185852,1.0,0.08353511989116669,1.0],"metallicFactor":0.0,"roughnessFactor":1.0}}],"meshes":[{"name":"Ground2","primitives":[{"attributes":{"NORMAL":2,"POSITION":0,"TANGENT":1,"TEXCOORD_0":3},"indices":4,"material":0,"mode":4},{"attributes":{"NORMAL":7,"POSITION":5,"TANGENT":6,"TEXCOORD_0":8},"indices":9,"material":1,"mode":4},{"attributes":{"NORMAL":12,"POSITION":10,"TANGENT":11,"TEXCOORD_0":13},"indices":14,"material":2,"mode":4},{"attributes":{"NORMAL":17,"POSITION":15,"TANGENT":16,"TEXCOORD_0":18},"indices":19,"material":3,"mode":4},{"attributes":{"NORMAL":22,"POSITION":20,"TANGENT":21,"TEXCOORD_0":23},"indices":24,"material":4,"mode":4}]}],"nodes":[{"mesh":0,"name":"Ground2"}],"scene":0,"scenes":[{"nodes":[0]}]}